<?xml version="1.0" encoding="utf-8"?>
<svg version="1.1" xmlns:xlink="http://www.w3.org/1999/xlink" width="12px" height="12px" viewBox="352 1414.5  12 12" xmlns="http://www.w3.org/2000/svg">
  <path d="M 358 1414.5  C 361.36 1414.5  364 1417.14  364 1420.5  C 364 1423.86  361.36 1426.5  358 1426.5  C 354.64 1426.5  352 1423.86  352 1420.5  C 352 1417.14  354.64 1414.5  358 1414.5  Z " fill-rule="nonzero" fill="#ffffff" stroke="none" />
  <path d="M 358 1415  C 361.08 1415  363.5 1417.42  363.5 1420.5  C 363.5 1423.58  361.08 1426  358 1426  C 354.92 1426  352.5 1423.58  352.5 1420.5  C 352.5 1417.42  354.92 1415  358 1415  Z " stroke-width="1" stroke="#797979" fill="none" />
  <path d="M 358 1423.5  C 356.32 1423.5  355 1422.18  355 1420.5  C 355 1418.82  356.32 1417.5  358 1417.5  C 359.68 1417.5  361 1418.82  361 1420.5  C 361 1422.18  359.68 1423.5  358 1423.5  " fill-rule="nonzero" fill="#797979" stroke="none" />
</svg>