<?xml version="1.0" encoding="utf-8"?>
<svg version="1.1" xmlns:xlink="http://www.w3.org/1999/xlink" width="12px" height="12px" viewBox="244 1001  12 12" xmlns="http://www.w3.org/2000/svg">
  <path d="M 250 1001  C 253.36 1001  256 1003.64  256 1007  C 256 1010.36  253.36 1013  250 1013  C 246.64 1013  244 1010.36  244 1007  C 244 1003.64  246.64 1001  250 1001  Z " fill-rule="nonzero" fill="#ffffff" stroke="none" />
  <path d="M 250 1001.5  C 253.08 1001.5  255.5 1003.92  255.5 1007  C 255.5 1010.08  253.08 1012.5  250 1012.5  C 246.92 1012.5  244.5 1010.08  244.5 1007  C 244.5 1003.92  246.92 1001.5  250 1001.5  Z " stroke-width="1" stroke="#797979" fill="none" />
  <path d="M 250 1010  C 248.32 1010  247 1008.68  247 1007  C 247 1005.32  248.32 1004  250 1004  C 251.68 1004  253 1005.32  253 1007  C 253 1008.68  251.68 1010  250 1010  " fill-rule="nonzero" fill="#797979" stroke="none" />
</svg>